<svg xmlns="http://www.w3.org/2000/svg" xmlns:xlink="http://www.w3.org/1999/xlink" fill="none" version="1.1" width="1080" height="1080" viewBox="0 0 1080 1080"><defs><clipPath id="master_svg0_8_8079"><rect x="0" y="0" width="1080" height="1080" rx="200"/></clipPath><filter id="master_svg1_8_8081" filterUnits="objectBoundingBox" color-interpolation-filters="sRGB" x="-836" y="-836" width="2202" height="2202"><feFlood flood-opacity="0" result="BackgroundImageFix"/><feBlend mode="normal" in="SourceGraphic" in2="BackgroundImageFix" result="shape"/><feGaussianBlur stdDeviation="209" result="effect1_foregroundBlur"/><feGaussianBlur in="BackgroundImage" stdDeviation="500"/><feComposite in2="SourceAlpha" operator="in" result="effect1_foregroundBlur"/><feBlend mode="normal" in="SourceGraphic" in2="effect1_foregroundBlur" result="shape"/></filter><filter id="master_svg2_8_8082" filterUnits="objectBoundingBox" color-interpolation-filters="sRGB" x="-836" y="-836" width="2202" height="2202"><feFlood flood-opacity="0" result="BackgroundImageFix"/><feBlend mode="normal" in="SourceGraphic" in2="BackgroundImageFix" result="shape"/><feGaussianBlur stdDeviation="209" result="effect1_foregroundBlur"/><feGaussianBlur in="BackgroundImage" stdDeviation="500"/><feComposite in2="SourceAlpha" operator="in" result="effect1_foregroundBlur"/><feBlend mode="normal" in="SourceGraphic" in2="effect1_foregroundBlur" result="shape"/></filter><filter id="master_svg3_8_8083" filterUnits="objectBoundingBox" color-interpolation-filters="sRGB" x="-836" y="-836" width="2202" height="2202"><feFlood flood-opacity="0" result="BackgroundImageFix"/><feBlend mode="normal" in="SourceGraphic" in2="BackgroundImageFix" result="shape"/><feGaussianBlur stdDeviation="209" result="effect1_foregroundBlur"/><feGaussianBlur in="BackgroundImage" stdDeviation="500"/><feComposite in2="SourceAlpha" operator="in" result="effect1_foregroundBlur"/><feBlend mode="normal" in="SourceGraphic" in2="effect1_foregroundBlur" result="shape"/></filter><linearGradient x1="0.5" y1="-0.42099180817604065" x2="0.5" y2="1" id="master_svg4_6_2584"><stop offset="0%" stop-color="#FFFFFF" stop-opacity="0"/><stop offset="100.0001311302185%" stop-color="#007BFF" stop-opacity="1"/></linearGradient><linearGradient x1="0.5" y1="0" x2="0.5" y2="1.3541988134384155" id="master_svg5_6_1392"><stop offset="0%" stop-color="#007BFF" stop-opacity="1"/><stop offset="100%" stop-color="#FFFFFF" stop-opacity="0"/></linearGradient><linearGradient x1="0.5" y1="0" x2="0.5" y2="1.3541988134384155" id="master_svg6_6_4294"><stop offset="0%" stop-color="#007BFF" stop-opacity="1"/><stop offset="100%" stop-color="#FFFFFF" stop-opacity="0"/></linearGradient></defs><g style="mix-blend-mode:passthrough" clip-path="url(#master_svg0_8_8079)"><rect x="0" y="0" width="1080" height="1080" rx="200" fill="#EBEBEB" fill-opacity="1"/><g style="opacity:0.3700000047683716;mix-blend-mode:passthrough"><g style="opacity:0.5;mix-blend-mode:passthrough" filter="url(#master_svg1_8_8081)"><ellipse cx="132" cy="922" rx="265" ry="265" fill="#FF00DD" fill-opacity="1"/></g><g style="opacity:0.5;mix-blend-mode:passthrough" filter="url(#master_svg2_8_8082)"><ellipse cx="250" cy="932.9998779296875" rx="265" ry="265" fill="#007BFF" fill-opacity="1"/></g><g style="opacity:0.5;mix-blend-mode:passthrough" filter="url(#master_svg3_8_8083)"><ellipse cx="103" cy="825" rx="265" ry="265" fill="#3700FF" fill-opacity="1"/></g></g><g style="mix-blend-mode:passthrough"><g style="mix-blend-mode:passthrough" transform="matrix(0.7071067690849304,0.7071067690849304,-0.7071067690849304,0.7071067690849304,468.27242105857204,-356.71911213498515)"><path d="M664.8822324472657,399.39524841308594L704.8819834472656,399.39544841308594L704.8819834472656,394.89544841308594C704.8819834472656,390.4771884130859,701.3002834472657,386.89547069308594,696.8820834472656,386.89544372608594L672.8822834472656,386.89529724178595C668.4639834472656,386.89527027448594,664.8822324472657,390.47699841308594,664.8822324472657,394.8952984130859L664.8822324472657,399.39524841308594ZM664.7342834472656,601.1852484130859L664.7342834472656,701.1852484130859L664.7342834472656,751.1852484130859L684.0268834472656,770.478248413086C684.4173834472656,770.8692484130859,685.0505834472656,770.8692484130859,685.4410834472657,770.478248413086L704.7342834472656,751.1852484130859L704.7342834472656,701.1852484130859L704.7342834472656,601.1852484130859L704.7342834472656,401.18554841308594L664.7342834472656,401.18554841308594L664.7342834472656,601.1852484130859Z" fill="url(#master_svg4_6_2584)" fill-opacity="1"/></g><g style="mix-blend-mode:passthrough" transform="matrix(-2.9329134676459034e-8,0.9999999403953552,0.9999999403953552,-2.9329134676459034e-8,-273.99997567757714,274.00007706208845)"><path d="M433.0000191822,1049.0000305175781C433.00000858819,1053.4180305175782,436.58173,1057.0000305175781,441.00002,1057.0000305175781L479.9992,1057.0000305175781C484.4174,1057.0000305175781,487.9992,1053.4180305175782,487.9992,1049.0000305175781L488,715.0000505175781C488,710.5817605175781,484.4183,707.0000305175781,480,707.0000305175781L441.00082,707.0000305175781C436.58255,707.0000305175781,433.000830632,710.5817405175782,433.000820038,715.0000105175782L433.0000191822,1049.0000305175781Z" fill="url(#master_svg5_6_1392)" fill-opacity="1"/></g><g style="mix-blend-mode:passthrough" transform="matrix(1,0,0,-0.9999999403953552,0,1293.9999614357948)"><path d="M317.99995697,1039C317.999947026,1043.4180000000001,321.58167,1047,325.99996,1047L364.9991,1047C369.4174,1047,372.9991,1043.4180000000001,372.9991,1039L373,655.00002C373,650.58173,369.4183,647,365,647L326.00082,647C321.58255,647,318.000831159,650.58171,318.000821216,654.99998L317.99995697,1039Z" fill="url(#master_svg6_6_4294)" fill-opacity="1"/></g><g style="mix-blend-mode:passthrough"><ellipse cx="345" cy="735" rx="48" ry="48" fill="#007BFF" fill-opacity="1"/></g></g></g></svg>